<svg width="41" height="41" viewBox="0 0 41 41" fill="none" xmlns="http://www.w3.org/2000/svg">
<mask id="mask0_2_70" style="mask-type:alpha" maskUnits="userSpaceOnUse" x="0" y="0" width="41" height="41">
<rect x="0.280884" y="0.280884" width="40.7191" height="40.7191" fill="#D9D9D9"/>
</mask>
<g mask="url(#mask0_2_70)">
<path d="M8.76405 35.9101C7.8309 35.9101 7.03179 35.5781 6.36671 34.9142C5.70276 34.2491 5.37079 33.45 5.37079 32.5168V8.76403C5.37079 7.83088 5.70276 7.03177 6.36671 6.36669C7.03179 5.70274 7.8309 5.37077 8.76405 5.37077H15.8899C16.2858 4.35279 16.9079 3.53275 17.7562 2.91065C18.6045 2.28856 19.5659 1.97751 20.6405 1.97751C21.715 1.97751 22.6764 2.28856 23.5247 2.91065C24.373 3.53275 24.9951 4.35279 25.391 5.37077H32.5169C33.45 5.37077 34.2491 5.70274 34.9142 6.36669C35.5781 7.03177 35.9101 7.83088 35.9101 8.76403V32.5168C35.9101 33.45 35.5781 34.2491 34.9142 34.9142C34.2491 35.5781 33.45 35.9101 32.5169 35.9101H8.76405ZM20.6405 7.49155C21.0081 7.49155 21.3123 7.37109 21.5532 7.13017C21.793 6.89038 21.9129 6.58668 21.9129 6.21908C21.9129 5.85148 21.793 5.54722 21.5532 5.30629C21.3123 5.0665 21.0081 4.94661 20.6405 4.94661C20.2728 4.94661 19.9692 5.0665 19.7294 5.30629C19.4884 5.54722 19.368 5.85148 19.368 6.21908C19.368 6.58668 19.4884 6.89038 19.7294 7.13017C19.9692 7.37109 20.2728 7.49155 20.6405 7.49155ZM20.6405 22.3371C22.2805 22.3371 23.6802 21.7574 24.8396 20.598C25.999 19.4387 26.5787 18.0389 26.5787 16.3989C26.5787 14.7588 25.999 13.3591 24.8396 12.1997C23.6802 11.0403 22.2805 10.4607 20.6405 10.4607C19.0004 10.4607 17.6007 11.0403 16.4413 12.1997C15.2819 13.3591 14.7022 14.7588 14.7022 16.3989C14.7022 18.0389 15.2819 19.4387 16.4413 20.598C17.6007 21.7574 19.0004 22.3371 20.6405 22.3371ZM8.76405 32.5168H32.5169V30.5657C30.9899 29.067 29.2158 27.8862 27.1945 27.0231C25.1721 26.1613 22.9875 25.7303 20.6405 25.7303C18.2934 25.7303 16.1093 26.1613 14.0881 27.0231C12.0657 27.8862 10.291 29.067 8.76405 30.5657V32.5168Z" fill="#3BB77E"/>
</g>
</svg>
