<svg width="42" height="41" viewBox="0 0 42 41" fill="none" xmlns="http://www.w3.org/2000/svg">
<mask id="mask0_2_88" style="mask-type:alpha" maskUnits="userSpaceOnUse" x="0" y="0" width="42" height="41">
<rect x="0.325836" y="0.280884" width="40.7191" height="40.7191" fill="#D9D9D9"/>
</mask>
<g mask="url(#mask0_2_88)">
<path d="M11.3539 18.9438L20.6854 3.67413L30.0168 18.9438H11.3539ZM30.0168 37.6067C27.896 37.6067 26.0931 36.8647 24.608 35.3807C23.124 33.8956 22.382 32.0927 22.382 29.9719C22.382 27.8511 23.124 26.0481 24.608 24.563C26.0931 23.079 27.896 22.3371 30.0168 22.3371C32.1376 22.3371 33.9406 23.079 35.4257 24.563C36.9097 26.0481 37.6517 27.8511 37.6517 29.9719C37.6517 32.0927 36.9097 33.8956 35.4257 35.3807C33.9406 36.8647 32.1376 37.6067 30.0168 37.6067ZM5.41571 36.7584V23.1854H18.9887V36.7584H5.41571Z" fill="#3BB77E"/>
</g>
</svg>
