<svg width="42" height="41" viewBox="0 0 42 41" fill="none" xmlns="http://www.w3.org/2000/svg">
<mask id="mask0_2_94" style="mask-type:alpha" maskUnits="userSpaceOnUse" x="0" y="0" width="42" height="41">
<rect x="0.674164" y="0.280884" width="40.7191" height="40.7191" fill="#D9D9D9"/>
</mask>
<g mask="url(#mask0_2_94)">
<path d="M7.46068 35.9101V20.0042L4.40674 22.3371L2.37079 19.6225L7.46068 15.7202V10.4607H10.8539V13.1328L21.0337 5.37077L39.6966 19.6225L37.6607 22.2946L34.6067 20.0042V35.9101H22.7303V25.7303H19.3371V35.9101H7.46068ZM7.46068 8.76403C7.46068 7.35017 7.95553 6.14839 8.94523 5.15869C9.93493 4.16899 11.1367 3.67414 12.5506 3.67414C13.0313 3.67414 13.4345 3.51126 13.7603 3.18551C14.0849 2.86089 14.2472 2.45822 14.2472 1.97751H17.6405C17.6405 3.39137 17.1456 4.59315 16.1559 5.58285C15.1662 6.57255 13.9644 7.0674 12.5506 7.0674C12.0699 7.0674 11.6666 7.22971 11.3409 7.55433C11.0162 7.88008 10.8539 8.28331 10.8539 8.76403H7.46068Z" fill="#3BB77E"/>
</g>
</svg>
