<svg width="42" height="41" viewBox="0 0 42 41" fill="none" xmlns="http://www.w3.org/2000/svg">
<mask id="mask0_2_76" style="mask-type:alpha" maskUnits="userSpaceOnUse" x="0" y="0" width="42" height="41">
<rect x="0.629211" y="0.280884" width="40.7191" height="40.7191" fill="#D9D9D9"/>
</mask>
<g mask="url(#mask0_2_76)">
<path d="M4.02246 32.5168V29.1236H20.9888V32.5168H4.02246ZM4.02246 24.0337V20.6404H12.5056V24.0337H4.02246ZM4.02246 15.5506V12.1573H12.5056V15.5506H4.02246ZM35.5798 32.5168L29.0477 25.9848C28.3691 26.4655 27.6271 26.8258 26.8218 27.0656C26.0153 27.3065 25.202 27.427 24.382 27.427C22.035 27.427 20.0347 26.5996 18.381 24.9448C16.7263 23.2911 15.8989 21.2908 15.8989 18.9438C15.8989 16.5968 16.7263 14.5959 18.381 12.9411C20.0347 11.2875 22.035 10.4607 24.382 10.4607C26.729 10.4607 28.7299 11.2875 30.3847 12.9411C32.0383 14.5959 32.8652 16.5968 32.8652 18.9438C32.8652 19.7638 32.7453 20.5771 32.5055 21.3836C32.2646 22.1889 31.9037 22.9309 31.423 23.6095L37.955 30.1416L35.5798 32.5168ZM24.382 24.0337C25.7959 24.0337 26.9976 23.5388 27.9873 22.5491C28.977 21.5594 29.4719 20.3577 29.4719 18.9438C29.4719 17.53 28.977 16.3282 27.9873 15.3385C26.9976 14.3488 25.7959 13.8539 24.382 13.8539C22.9682 13.8539 21.7664 14.3488 20.7767 15.3385C19.787 16.3282 19.2921 17.53 19.2921 18.9438C19.2921 20.3577 19.787 21.5594 20.7767 22.5491C21.7664 23.5388 22.9682 24.0337 24.382 24.0337Z" fill="#3BB77E"/>
</g>
</svg>
