<svg width="42" height="41" viewBox="0 0 42 41" fill="none" xmlns="http://www.w3.org/2000/svg">
<mask id="mask0_2_82" style="mask-type:alpha" maskUnits="userSpaceOnUse" x="0" y="0" width="42" height="41">
<rect x="0.977539" y="0.280884" width="40.7191" height="40.7191" fill="#D9D9D9"/>
</mask>
<g mask="url(#mask0_2_82)">
<path d="M12.854 37.6067C11.9208 37.6067 11.1223 37.2747 10.4583 36.6108C9.79325 35.9457 9.46071 35.1466 9.46071 34.2135C9.46071 33.2803 9.79325 32.4812 10.4583 31.8161C11.1223 31.1522 11.9208 30.8202 12.854 30.8202C13.7871 30.8202 14.5857 31.1522 15.2496 31.8161C15.9147 32.4812 16.2472 33.2803 16.2472 34.2135C16.2472 35.1466 15.9147 35.9457 15.2496 36.6108C14.5857 37.2747 13.7871 37.6067 12.854 37.6067ZM29.8203 37.6067C28.8871 37.6067 28.0886 37.2747 27.4246 36.6108C26.7595 35.9457 26.427 35.1466 26.427 34.2135C26.427 33.2803 26.7595 32.4812 27.4246 31.8161C28.0886 31.1522 28.8871 30.8202 29.8203 30.8202C30.7534 30.8202 31.5525 31.1522 32.2176 31.8161C32.8815 32.4812 33.2135 33.2803 33.2135 34.2135C33.2135 35.1466 32.8815 35.9457 32.2176 36.6108C31.5525 37.2747 30.7534 37.6067 29.8203 37.6067ZM9.80004 7.06739H34.8253C35.4757 7.06739 35.9705 7.35695 36.3099 7.93607C36.6492 8.51631 36.6633 9.10335 36.3523 9.69717L30.3293 20.5556C30.0182 21.1211 29.6008 21.5594 29.0771 21.8705C28.5546 22.1815 27.9822 22.3371 27.3602 22.3371H14.7203L12.854 25.7303H33.2135V29.1236H12.854C11.5815 29.1236 10.6201 28.5648 9.9697 27.4473C9.31933 26.3309 9.29105 25.2213 9.88487 24.1185L12.1753 19.9618L6.06745 7.06739H2.67419V3.67413H8.18824L9.80004 7.06739Z" fill="#3BB77E"/>
</g>
</svg>
